HIERARCHY
ROOT hip
{
  OFFSET -4.53825 84.5269 34.9341
  CHANNELS 6 Xposition Yposition Zposition Zrotation Xrotation Yrotation
  JOINT abdomen
  {
    OFFSET 0 20.6881 -0.73152
    CHANNELS 3 Zrotation Xrotation Yrotation
    JOINT chest
    {
      OFFSET 0 11.7043 -0.48768
      CHANNELS 3 Zrotation Xrotation Yrotation
      JOINT neck
      {
        OFFSET 0 22.1894 -2.19456
        CHANNELS 3 Zrotation Xrotation Yrotation
        JOINT head
        {
          OFFSET -0.24384 7.07133 1.2192
          CHANNELS 3 Zrotation Xrotation Yrotation
          JOINT leftEye
          {
            OFFSET 4.14528 8.04674 8.04672
            CHANNELS 3 Zrotation Xrotation Yrotation
            End Site
            {
              OFFSET 1 0 0
            }
          }
          JOINT rightEye
          {
            OFFSET -3.6576 8.04674 8.04672
            CHANNELS 3 Zrotation Xrotation Yrotation
            End Site
            {
              OFFSET 1 0 0
            }
          }
        }
      }
      JOINT rCollar
      {
        OFFSET -2.68224 19.2634 -4.8768
        CHANNELS 3 Zrotation Xrotation Yrotation
        JOINT rShldr
        {
          OFFSET -8.77824 -1.95073 1.46304
          CHANNELS 3 Zrotation Xrotation Yrotation
          JOINT rForeArm
          {
            OFFSET -28.1742 -1.7115 0.48768
            CHANNELS 3 Zrotation Xrotation Yrotation
            JOINT rHand
            {
              OFFSET -22.5879 0.773209 7.07136
              CHANNELS 3 Zrotation Xrotation Yrotation
              JOINT rThumb1
              {
                OFFSET -1.2192 -0.487915 3.41376
                CHANNELS 3 Zrotation Xrotation Yrotation
                JOINT rThumb2
                {
                  OFFSET -3.37035 -0.52449 3.41376
                  CHANNELS 3 Zrotation Xrotation Yrotation
                  End Site
                  {
                    OFFSET -1.78271 -1.18214 1.43049
                  }
                }
              }
              JOINT rIndex1
              {
                OFFSET -7.75947 0.938293 5.60832
                CHANNELS 3 Zrotation Xrotation Yrotation
                JOINT rIndex2
                {
                  OFFSET -2.54057 -0.884171 1.56538
                  CHANNELS 3 Zrotation Xrotation Yrotation
                  End Site
                  {
                    OFFSET -1.62519 -0.234802 1.16502
                  }
                }
              }
              JOINT rMid1
              {
                OFFSET -8.24714 1.18213 3.41376
                CHANNELS 3 Zrotation Xrotation Yrotation
                JOINT rMid2
                {
                  OFFSET -3.10165 -0.590103 1.0647
                  CHANNELS 3 Zrotation Xrotation Yrotation
                  End Site
                  {
                    OFFSET -2.48547 -0.328903 0.83742
                  }
                }
              }
              JOINT rRing1
              {
                OFFSET -8.82822 0.546677 1.51678
                CHANNELS 3 Zrotation Xrotation Yrotation
                JOINT rRing2
                {
                  OFFSET -2.60934 -0.819778 -0.0198488
                  CHANNELS 3 Zrotation Xrotation Yrotation
                  End Site
                  {
                    OFFSET -2.33842 -0.294052 0.168128
                  }
                }
              }
              JOINT rPinky1
              {
                OFFSET -8.27202 -0.0477905 -0.4584
                CHANNELS 3 Zrotation Xrotation Yrotation
                JOINT rPinky2
                {
                  OFFSET -1.82734 -0.647385 -0.700984
                  CHANNELS 3 Zrotation Xrotation Yrotation
                  End Site
                  {
                    OFFSET -1.69225 -0.51767 -0.607171
                  }
                }
              }
            }
          }
        }
      }
      JOINT lCollar
      {
        OFFSET 2.68224 19.2634 -4.8768
        CHANNELS 3 Zrotation Xrotation Yrotation
        JOINT lShldr
        {
          OFFSET 8.77824 -1.95073 1.46304
          CHANNELS 3 Zrotation Xrotation Yrotation
          JOINT lForeArm
          {
            OFFSET 28.1742 -1.7115 0.48768
            CHANNELS 3 Zrotation Xrotation Yrotation
            JOINT lHand
            {
              OFFSET 22.5879 0.773209 7.07136
              CHANNELS 3 Zrotation Xrotation Yrotation
              JOINT lThumb1
              {
                OFFSET 1.2192 -0.487915 3.41376
                CHANNELS 3 Zrotation Xrotation Yrotation
                JOINT lThumb2
                {
                  OFFSET 3.37035 -0.52449 3.41376
                  CHANNELS 3 Zrotation Xrotation Yrotation
                  End Site
                  {
                    OFFSET 1.78271 -1.18214 1.43049
                  }
                }
              }
              JOINT lIndex1
              {
                OFFSET 7.75947 0.938293 5.60832
                CHANNELS 3 Zrotation Xrotation Yrotation
                JOINT lIndex2
                {
                  OFFSET 2.54057 -0.884171 1.56538
                  CHANNELS 3 Zrotation Xrotation Yrotation
                  End Site
                  {
                    OFFSET 1.62519 -0.234802 1.16502
                  }
                }
              }
              JOINT lMid1
              {
                OFFSET 8.24714 1.18213 3.41376
                CHANNELS 3 Zrotation Xrotation Yrotation
                JOINT lMid2
                {
                  OFFSET 3.10165 -0.590103 1.0647
                  CHANNELS 3 Zrotation Xrotation Yrotation
                  End Site
                  {
                    OFFSET 2.48547 -0.328903 0.83742
                  }
                }
              }
              JOINT lRing1
              {
                OFFSET 8.82822 0.546677 1.51678
                CHANNELS 3 Zrotation Xrotation Yrotation
                JOINT lRing2
                {
                  OFFSET 2.60934 -0.819778 -0.0198488
                  CHANNELS 3 Zrotation Xrotation Yrotation
                  End Site
                  {
                    OFFSET 2.33842 -0.294052 0.168128
                  }
                }
              }
              JOINT lPinky1
              {
                OFFSET 8.27202 -0.0477905 -0.4584
                CHANNELS 3 Zrotation Xrotation Yrotation
                JOINT lPinky2
                {
                  OFFSET 1.82734 -0.647385 -0.700984
                  CHANNELS 3 Zrotation Xrotation Yrotation
                  End Site
                  {
                    OFFSET 1.69225 -0.51767 -0.607171
                  }
                }
              }
            }
          }
        }
      }
    }
  }
  JOINT rButtock
  {
    OFFSET -8.77824 4.35084 1.2192
    CHANNELS 3 Zrotation Xrotation Yrotation
    JOINT rThigh
    {
      OFFSET 0 -1.70687 -2.19456
      CHANNELS 3 Zrotation Xrotation Yrotation
      JOINT rShin
      {
        OFFSET 0 -36.8199 0.73152
        CHANNELS 3 Zrotation Xrotation Yrotation
        JOINT rFoot
        {
          OFFSET 0.73152 -45.1104 -5.12064
          CHANNELS 3 Zrotation Xrotation Yrotation
          End Site
          {
            OFFSET -1.1221 -3.69964 12.103
          }
        }
      }
    }
  }
  JOINT lButtock
  {
    OFFSET 8.77824 4.35084 1.2192
    CHANNELS 3 Zrotation Xrotation Yrotation
    JOINT lThigh
    {
      OFFSET 0 -1.70687 -2.19456
      CHANNELS 3 Zrotation Xrotation Yrotation
      JOINT lShin
      {
        OFFSET 0 -36.8199 0.73152
        CHANNELS 3 Zrotation Xrotation Yrotation
        JOINT lFoot
        {
          OFFSET -0.73152 -45.1104 -5.12064
          CHANNELS 3 Zrotation Xrotation Yrotation
          End Site
          {
            OFFSET 1.1221 -3.69964 12.103
          }
        }
      }
    }
  }
}
MOTION
Frames:	9
Frame Time:	0.00833333
-6.76739 84.9324 29.3621 1.222 1.29884 -9.40401 -8.51843 21.2976 -5.45628 -3.73105 -7.99429 -2.28099 3.87979 -7.37989 3.1458 2.54188 2.83908 4.58289 -0 0 0 -0 0 0 5.46064e-014 2.78745e-014 -2.66114e-013 -31.8543 24.227 74.9929 -20.0121 -53.3387 114.185 -3.34694 -44.9792 -8.07325 -3.43503e-010 1.63829e-010 -9.38178e-010 -5.58013e-010 2.95915e-010 -1.63275e-009 -3.43495e-010 1.63826e-010 -9.38192e-010 7.73091 5.47488 0.417314 -3.43498e-010 1.63823e-010 -9.38178e-010 2.90554 0.965183 0.102902 -3.43492e-010 1.63823e-010 -9.38178e-010 10.2786 0.731801 0.0259123 -3.43508e-010 1.63825e-010 -9.38172e-010 2.22167 -0.733487 -0.20892 5.45464e-014 2.78593e-014 -2.66175e-013 -59.298 -23.7017 -30.1249 28.1871 -39.0408 -82.4179 72.606 -81.9027 80.5129 6.76129e-010 -1.97911e-009 -9.11223e-010 1.21683e-009 -3.49071e-009 -1.50576e-009 6.76131e-010 -1.97915e-009 -9.11202e-010 -7.73091 5.47488 -0.417314 6.76135e-010 -1.97916e-009 -9.11225e-010 -2.90554 0.965183 -0.102902 6.76121e-010 -1.97915e-009 -9.11224e-010 -10.2786 0.731801 -0.0259123 6.76138e-010 -1.9791e-009 -9.11234e-010 -2.22167 -0.733487 0.20892 -2.03217e-016 0 -3.88251e-019 -21.5639 -2.61557 -0.011924 -0.00279298 -1.08614 -0.0231828 0.242654 3.70577 0.0246288 2.03217e-016 0 3.88251e-019 7.19556 -7.80485 -3.64441 0.00590306 17.9864 -0.520994 8.38203 -18.2773 23.2205 
-6.74239 84.9332 29.4208 1.18173 1.36628 -9.26373 -8.30397 20.9391 -5.05861 -3.6525 -7.91727 -2.14242 3.69627 -7.16126 2.91281 2.43129 3.40305 4.1941 -0 0 0 -0 0 0 4.81957e-014 -1.57997e-014 -2.97907e-013 -30.9676 25.4494 72.8791 -20.0232 -53.3298 114.158 -3.37601 -45.1236 -8.11433 -5.39563e-010 -5.80547e-011 -4.91253e-010 -9.12554e-010 -8.69655e-011 -8.68729e-010 -5.39553e-010 -5.80613e-011 -4.91264e-010 7.73091 5.47488 0.417314 -5.39558e-010 -5.80639e-011 -4.91254e-010 2.90554 0.965183 0.102902 -5.39551e-010 -5.80644e-011 -4.91254e-010 10.2786 0.731801 0.0259123 -5.39567e-010 -5.8063e-011 -4.91247e-010 2.22167 -0.733487 -0.20892 4.81373e-014 -1.58076e-014 -2.97994e-013 -56.6477 -21.9578 -28.5422 27.9819 -40.3738 -84.7512 55.3277 -81.0549 63.0438 5.74211e-010 -1.58513e-009 -8.57737e-010 1.03631e-009 -2.82987e-009 -1.42204e-009 5.74211e-010 -1.58516e-009 -8.5772e-010 -7.73091 5.47488 -0.417314 5.74215e-010 -1.58517e-009 -8.57737e-010 -2.90554 0.965183 -0.102902 5.74203e-010 -1.58516e-009 -8.57735e-010 -10.2786 0.731801 -0.0259123 5.74218e-010 -1.58513e-009 -8.57745e-010 -2.22167 -0.733487 0.20892 -2.03217e-016 0 -3.88251e-019 -21.5634 -2.6164 -0.0119282 -0.0027619 -1.08291 -0.0229171 0.243817 3.70309 0.0244221 2.03217e-016 0 3.88251e-019 7.19994 -7.88941 -3.76805 0.00608606 18.0364 -0.521872 8.38891 -18.3154 23.2001 
-6.70843 84.934 29.4856 1.13801 1.42854 -9.10867 -8.07857 20.5713 -4.62757 -3.56722 -7.84639 -1.99355 3.50361 -6.91747 2.66372 2.3252 4.00811 3.77749 -0 0 0 -0 0 0 4.2542e-014 -5.4753e-014 -3.08329e-013 -29.9572 26.6471 70.5888 -20.0663 -53.2966 114.053 -3.40368 -45.2601 -8.15334 -6.74008e-010 -2.88898e-010 2.02757e-012 -1.1623e-009 -4.86229e-010 -2.25002e-011 -6.73997e-010 -2.88907e-010 2.02161e-012 7.73091 5.47488 0.417314 -6.74003e-010 -2.8891e-010 2.02741e-012 2.90554 0.965183 0.102902 -6.73995e-010 -2.8891e-010 2.02587e-012 10.2786 0.731801 0.0259123 -6.74012e-010 -2.8891e-010 2.03369e-012 2.22167 -0.733487 -0.20892 4.24901e-014 -5.4753e-014 -3.08448e-013 -53.8696 -20.002 -26.9624 27.7275 -41.6574 -86.965 40.9966 -79.3805 48.5041 4.46597e-010 -1.1011e-009 -7.32047e-010 8.07261e-010 -2.00402e-009 -1.21795e-009 4.46594e-010 -1.10111e-009 -7.32034e-010 -7.73091 5.47488 -0.417314 4.46599e-010 -1.10111e-009 -7.32045e-010 -2.90554 0.965183 -0.102902 4.46589e-010 -1.10111e-009 -7.32042e-010 -10.2786 0.731801 -0.0259123 4.46602e-010 -1.1011e-009 -7.32051e-010 -2.22167 -0.733487 0.20892 -2.03217e-016 0 -3.88251e-019 -21.5625 -2.61806 -0.0119444 -0.0027265 -1.07844 -0.0226164 0.245122 3.69997 0.0241888 2.03217e-016 0 3.88251e-019 7.20969 -7.9726 -3.87144 0.00634989 18.0919 -0.522609 8.38117 -18.3431 23.1534 
-6.66416 84.9321 29.5489 1.10989 1.49893 -8.94258 -7.86692 20.1967 -4.15657 -3.50507 -7.78786 -1.83632 3.31882 -6.6691 2.39945 2.23883 4.6287 3.32693 -0 0 0 -0 0 0 4.21387e-014 -6.99745e-014 -3.03644e-013 -28.833 27.8211 68.1613 -20.1345 -53.2443 113.887 -3.43056 -45.3917 -8.19114 -7.70722e-010 -4.58254e-010 3.26602e-010 -1.34087e-009 -7.78609e-010 5.33855e-010 -7.7071e-010 -4.58264e-010 3.26598e-010 7.73091 5.47488 0.417314 -7.70717e-010 -4.58266e-010 3.26602e-010 2.90554 0.965183 0.102902 -7.70708e-010 -4.58266e-010 3.26599e-010 10.2786 0.731801 0.0259123 -7.70725e-010 -4.58267e-010 3.26608e-010 2.22167 -0.733487 -0.20892 4.20991e-014 -6.99703e-014 -3.03793e-013 -50.9735 -17.7724 -25.4007 27.395 -42.8561 -89.2117 31.2781 -77.3008 38.5845 4.21211e-010 -8.99622e-010 -6.33897e-010 7.56201e-010 -1.65787e-009 -1.05437e-009 4.21207e-010 -8.99626e-010 -6.33888e-010 -7.73091 5.47488 -0.417314 4.21213e-010 -8.99624e-010 -6.33894e-010 -2.90554 0.965183 -0.102902 4.21205e-010 -8.99623e-010 -6.33892e-010 -10.2786 0.731801 -0.0259123 4.21216e-010 -8.99618e-010 -6.339e-010 -2.22167 -0.733487 0.20892 -2.03217e-016 0 -3.88251e-019 -21.5608 -2.62017 -0.0119769 -0.00269343 -1.07244 -0.0223404 0.246128 3.69577 0.0239838 2.03217e-016 0 3.88251e-019 7.20694 -8.07027 -3.94494 0.00677435 18.1476 -0.522875 8.35099 -18.3438 23.0747 
-6.60291 84.9289 29.6128 1.10724 1.58275 -8.77683 -7.68128 19.8019 -3.61298 -3.48346 -7.7528 -1.66346 3.15367 -6.42026 2.11198 2.16683 5.30828 2.82178 -0 0 0 -0 0 0 5.1825e-014 -4.81943e-014 -2.7891e-013 -27.587 28.9955 65.5525 -20.2354 -53.1658 113.64 -3.46324 -45.5505 -8.23699 -8.32002e-010 -5.70286e-010 4.28666e-010 -1.45027e-009 -9.71031e-010 7.07296e-010 -8.31992e-010 -5.70293e-010 4.28664e-010 7.73091 5.47488 0.417314 -8.31998e-010 -5.70296e-010 4.28667e-010 2.90554 0.965183 0.102902 -8.3199e-010 -5.70296e-010 4.28664e-010 10.2786 0.731801 0.0259123 -8.32006e-010 -5.70296e-010 4.28674e-010 2.22167 -0.733487 -0.20892 5.18077e-014 -4.81915e-014 -2.79089e-013 -47.8574 -15.226 -23.7835 26.9958 -43.9903 -91.4838 24.8924 -75.1451 32.0106 5.78408e-010 -1.18698e-009 -5.97071e-010 1.0231e-009 -2.14531e-009 -9.84593e-010 5.78403e-010 -1.18699e-009 -5.97063e-010 -7.73091 5.47488 -0.417314 5.78409e-010 -1.18698e-009 -5.97068e-010 -2.90554 0.965183 -0.102902 5.78403e-010 -1.18698e-009 -5.97067e-010 -10.2786 0.731801 -0.0259123 5.78412e-010 -1.18698e-009 -5.97076e-010 -2.22167 -0.733487 0.20892 -2.03217e-016 0 -3.88251e-019 -21.5578 -2.6228 -0.0120322 -0.00266331 -1.06467 -0.0220951 0.246572 3.6903 0.0238426 2.03217e-016 0 3.88251e-019 7.18444 -8.18467 -3.96847 0.00739498 18.2005 -0.522408 8.29103 -18.3082 22.9531 
-6.53565 84.9262 29.6747 1.11818 1.67233 -8.60594 -7.50378 19.3895 -3.01147 -3.48312 -7.73471 -1.4765 2.99742 -6.16038 1.80366 2.10894 6.04359 2.27109 -0 0 0 -0 0 0 6.79908e-014 -2.28493e-015 -2.32991e-013 -26.2049 30.1475 62.7512 -20.3682 -53.0603 113.313 -3.49939 -45.7244 -8.28752 -8.4647e-010 -6.54916e-010 4.2174e-010 -1.4749e-009 -1.11597e-009 6.94206e-010 -8.4646e-010 -6.54919e-010 4.21738e-010 7.73091 5.47488 0.417314 -8.46466e-010 -6.54921e-010 4.21742e-010 2.90554 0.965183 0.102902 -8.46458e-010 -6.5492e-010 4.21738e-010 10.2786 0.731801 0.0259123 -8.46474e-010 -6.54921e-010 4.21748e-010 2.22167 -0.733487 -0.20892 6.80041e-014 -2.28691e-015 -2.33202e-013 -44.5975 -12.3908 -22.1538 26.5572 -45.1012 -93.687 20.2255 -72.8675 27.1538 8.34546e-010 -1.72881e-009 -5.65977e-010 1.46064e-009 -3.06182e-009 -9.19334e-010 8.34541e-010 -1.72882e-009 -5.65968e-010 -7.73091 5.47488 -0.417314 8.34548e-010 -1.7288e-009 -5.65973e-010 -2.90554 0.965183 -0.102902 8.34544e-010 -1.7288e-009 -5.65974e-010 -10.2786 0.731801 -0.0259123 8.34551e-010 -1.7288e-009 -5.65985e-010 -2.22167 -0.733487 0.20892 -2.03217e-016 0 -3.88251e-019 -21.554 -2.62608 -0.0121062 -0.002633 -1.05535 -0.0218519 0.246737 3.6839 0.0237289 2.03217e-016 0 3.88251e-019 7.15289 -8.30805 -3.95299 0.00816209 18.254 -0.521442 8.20754 -18.2465 22.7948 
-6.48603 84.926 29.7424 1.129 1.76156 -8.40846 -7.31612 18.9863 -2.41563 -3.47904 -7.71343 -1.2906 2.83279 -5.88804 1.49084 2.08367 6.73882 1.71338 -0 0 0 -0 0 0 8.24552e-014 4.75506e-014 -1.77858e-013 -24.6967 31.2334 59.867 -20.5139 -52.9421 112.952 -3.52578 -45.8503 -8.32432 -8.17486e-010 -6.80335e-010 3.41738e-010 -1.42191e-009 -1.15849e-009 5.56635e-010 -8.17478e-010 -6.80333e-010 3.41736e-010 7.73091 5.47488 0.417314 -8.17482e-010 -6.80335e-010 3.41742e-010 2.90554 0.965183 0.102902 -8.17476e-010 -6.80334e-010 3.41737e-010 10.2786 0.731801 0.0259123 -8.17491e-010 -6.80335e-010 3.41748e-010 2.22167 -0.733487 -0.20892 8.24992e-014 4.75436e-014 -1.78096e-013 -41.4411 -9.32824 -20.6917 26.0713 -46.1567 -95.8449 16.5279 -70.3899 23.258 1.07156e-009 -2.23675e-009 -5.06297e-010 1.86436e-009 -3.91458e-009 -8.05695e-010 1.07156e-009 -2.23677e-009 -5.06288e-010 -7.73091 5.47488 -0.417314 1.07156e-009 -2.23675e-009 -5.06294e-010 -2.90554 0.965183 -0.102902 1.07156e-009 -2.23675e-009 -5.06296e-010 -10.2786 0.731801 -0.0259123 1.07157e-009 -2.23675e-009 -5.06308e-010 -2.22167 -0.733487 0.20892 -2.03217e-016 0 -3.88251e-019 -21.5498 -2.6298 -0.0121875 -0.00260354 -1.04483 -0.0216189 0.247005 3.67677 0.0235902 2.03217e-016 0 3.88251e-019 7.12103 -8.44124 -3.93538 0.00902739 18.3122 -0.520389 8.11311 -18.1716 22.6201 
-6.4437 84.9266 29.813 1.12592 1.84431 -8.16289 -7.10304 18.6204 -1.88805 -3.44644 -7.66876 -1.12095 2.64227 -5.6019 1.18988 2.10401 7.29813 1.1876 -0 0 0 -0 0 0 8.70374e-014 8.11092e-014 -1.25483e-013 -23.0815 32.2329 57.028 -20.6546 -52.8263 112.601 -3.52882 -45.8651 -8.3286 -7.48413e-010 -6.14734e-010 2.24579e-010 -1.29846e-009 -1.04366e-009 3.56635e-010 -7.48407e-010 -6.14729e-010 2.24576e-010 7.73091 5.47488 0.417314 -7.4841e-010 -6.14731e-010 2.24582e-010 2.90554 0.965183 0.102902 -7.48405e-010 -6.1473e-010 2.24578e-010 10.2786 0.731801 0.0259123 -7.48419e-010 -6.14731e-010 2.24589e-010 2.22167 -0.733487 -0.20892 8.71037e-014 8.10999e-014 -1.25731e-013 -38.5878 -6.12 -19.5617 25.5359 -47.1194 -97.9747 13.4199 -67.5989 19.9353 1.17139e-009 -2.42247e-009 -3.83715e-010 2.02981e-009 -4.21076e-009 -5.90772e-010 1.17139e-009 -2.42249e-009 -3.83705e-010 -7.73091 5.47488 -0.417314 1.17139e-009 -2.42246e-009 -3.83712e-010 -2.90554 0.965183 -0.102902 1.17139e-009 -2.42246e-009 -3.83715e-010 -10.2786 0.731801 -0.0259123 1.1714e-009 -2.42246e-009 -3.83728e-010 -2.22167 -0.733487 0.20892 -2.03217e-016 0 -3.88251e-019 -21.5458 -2.63376 -0.0122645 -0.00257595 -1.03348 -0.0214042 0.247759 3.6691 0.0233738 2.03217e-016 0 3.88251e-019 7.0973 -8.58506 -3.95262 0.00994413 18.3793 -0.519662 8.02002 -18.0964 22.4494 
-6.38909 84.9289 29.8841 1.10673 1.92538 -7.85807 -6.85783 18.2712 -1.4433 -3.38338 -7.57407 -0.970516 2.42852 -5.28847 0.905015 2.15014 7.6879 0.70457 -0 0 0 -0 0 0 7.68324e-014 9.67749e-014 -7.15295e-014 -21.3531 33.1806 54.2455 -20.8023 -52.704 112.229 -3.49427 -45.7013 -8.28058 -6.1459e-010 -3.76639e-010 9.95613e-012 -1.05977e-009 -6.29117e-010 -9.0349e-012 -6.14588e-010 -3.76634e-010 9.95153e-012 7.73091 5.47488 0.417314 -6.14588e-010 -3.76635e-010 9.95751e-012 2.90554 0.965183 0.102902 -6.14584e-010 -3.76635e-010 9.9548e-012 10.2786 0.731801 0.0259123 -6.14596e-010 -3.76635e-010 9.96446e-012 2.22167 -0.733487 -0.20892 7.69112e-014 9.67677e-014 -7.17659e-014 -35.9644 -2.78457 -18.786 24.9729 -48.0055 -100.035 10.6706 -64.2888 16.9351 1.07329e-009 -2.10115e-009 -9.86325e-011 1.84849e-009 -3.62462e-009 -1.05988e-010 1.07329e-009 -2.10117e-009 -9.86233e-011 -7.73091 5.47488 -0.417314 1.07329e-009 -2.10115e-009 -9.86309e-011 -2.90554 0.965183 -0.102902 1.07329e-009 -2.10115e-009 -9.86322e-011 -10.2786 0.731801 -0.0259123 1.0733e-009 -2.10115e-009 -9.86438e-011 -2.22167 -0.733487 0.20892 -2.03217e-016 0 -3.88251e-019 -21.5422 -2.63748 -0.0123286 -0.00255212 -1.02201 -0.0212226 0.249001 3.66113 0.0230821 2.03217e-016 0 3.88251e-019 7.07741 -8.74389 -4.0361 0.010842 18.4557 -0.51958 7.94422 -18.0352 22.3098 
